<svg xmlns="http://www.w3.org/2000/svg" width="14" height="24" viewBox="0 0 14 24">
    <g fill="none" fill-rule="evenodd">
        <g fill="#FF7D69" fill-rule="nonzero">
            <g>
                <g>
                    <path d="M.829 23.498c-.67-.67-.67-1.755 0-2.424l8.765-8.77c.08-.081.126-.19.126-.304 0-.114-.046-.223-.126-.303L.829 2.927C.214 2.25.239 1.21.884.562 1.53-.084 2.57-.111 3.247.503l9.68 9.678c.482.482.753 1.137.753 1.819 0 .682-.271 1.337-.754 1.819l-9.679 9.679c-.668.666-1.75.666-2.418 0z" transform="translate(-857 -933) translate(570 926) translate(287 7)"/>
                </g>
            </g>
        </g>
    </g>
</svg>
