<svg xmlns="http://www.w3.org/2000/svg" width="16" height="16" viewBox="0 0 16 16">
    <g fill="none" fill-rule="evenodd">
        <g fill="#FF7D69" fill-rule="nonzero">
            <g>
                <g>
                    <path d="M12.997 7.047c-.109-.12-.263-.19-.426-.19H3.43c-.163 0-.318.068-.428.188-.109.121-.161.282-.144.444l.857 8c.031.292.278.513.572.511h7.428c.294.002.54-.22.572-.51l.857-8c.016-.162-.037-.323-.146-.443zM14.286 3.19h-2.857c-.158 0-.286-.127-.286-.285V2c-.001-1.104-.896-1.999-2-2H6.857c-1.09.005-1.978.879-2 1.97l-.014.939c-.002.156-.13.281-.285.282H1.714c-.63 0-1.143.512-1.143 1.143 0 .63.512 1.143 1.143 1.143h12.572c.63 0 1.143-.512 1.143-1.143s-.512-1.143-1.143-1.143zM6.57 1.996c.004-.155.13-.28.286-.28h2.286c.158 0 .286.127.286.285v.905c0 .158-.128.286-.286.286h-2.3c-.076 0-.15-.031-.203-.086-.054-.054-.083-.128-.082-.204l.013-.906z" transform="translate(-1240 -458) translate(160 432) translate(1080 26)"/>
                </g>
            </g>
        </g>
    </g>
</svg>
