<svg xmlns="http://www.w3.org/2000/svg" width="16" height="16" viewBox="0 0 16 16">
    <g fill="none" fill-rule="evenodd">
        <g fill="#FF7D69" fill-rule="nonzero">
            <g>
                <g>
                    <path d="M15.494 2.547L13.448.504c-.676-.672-1.768-.672-2.445 0L1.606 9.912c-.07.069-.12.155-.147.25L.022 15.272c-.049.172-.014.357.094.5.108.143.276.227.455.227.053 0 .105-.007.155-.022l5.12-1.435c.094-.027.18-.078.25-.146l9.398-9.407c.324-.324.506-.763.506-1.221 0-.459-.182-.898-.506-1.222z" transform="translate(-1200 -458) translate(160 432) translate(1040 26)"/>
                </g>
            </g>
        </g>
    </g>
</svg>
